<?xml version="1.0" encoding="utf-8"?>
<svg xmlns="http://www.w3.org/2000/svg">
  <symbol id="refresh" viewBox="0 0 52 52">
    <path d="M47.6 25H39c-1.4 0-2.5 1.1-2.5 2.5S37.6 30 39 30h4.1c-2.2 6.9-8.5 11.9-16.1 11.9-9.3 0-16.8-7.6-16.8-16.9s7.5-16.9 16.8-16.9c4.6 0 8.7 1.9 11.7 4.9l-4.4 4.4c-.9.9-.3 2.5 1.1 2.5h10.4c.8 0 1.5-.7 1.5-1.5v-10c0-1.4-1.6-2-2.5-1.1l-3.9 3.9C37.2 8.5 32.4 6.1 27 6.1 14.3 6.1 4 16.5 4 29.2s10.3 23.1 23 23.1c11.9 0 21.9-9 23-20.5.2-1.6-1-2.8-2.4-2.8z" fill="#fff"/>
  </symbol>
  <symbol id="close" viewBox="0 0 52 52">
    <path d="M31 25.4l13-13.1c.6-.6.6-1.5 0-2.1l-2-2.1c-.6-.6-1.5-.6-2.1 0L26.8 21.2c-.4.4-.9.4-1.3 0L12.4 8c-.6-.6-1.5-.6-2.1 0l-2.1 2.1c-.6.6-.6 1.5 0 2.1l13.1 13.1c.4.4.4.9 0 1.3L8.2 39.8c-.6.6-.6 1.5 0 2.1l2.1 2.1c.6.6 1.5.6 2.1 0L25.5 31c.4-.4.9-.4 1.3 0l13.1 13c.6.6 1.5.6 2.1 0l2.1-2.1c.6-.6.6-1.5 0-2.1L31 26.7c-.4-.4-.4-.9 0-1.3z" fill="#fff"/>
  </symbol>
  <symbol id="error" viewBox="0 0 52 52">
    <path d="M26 2C12.8 2 2 12.8 2 26s10.8 24 24 24 24-10.8 24-24S39.2 2 26 2zm0 42c-9.9 0-18-8.1-18-18S16.1 8 26 8s18 8.1 18 18-8.1 18-18 18zm-2-33c0 1.1-.9 2-2 2s-2-.9-2-2 .9-2 2-2 2 .9 2 2zm-4 6h4c.6 0 1 .4 1 1v15c0 .6-.4 1-1 1h-4c-.6 0-1-.4-1-1V18c0-.6.4-1 1-1z" fill="#fff"/>
  </symbol>
</svg>