<?xml version="1.0" encoding="utf-8"?>
<svg xmlns="http://www.w3.org/2000/svg">
  <symbol id="labels" viewBox="0 0 100 100">
    <path d="M26.2 26.2h47.6v47.6H26.2z" fill-opacity=".01" fill="#fff"/>
    <path d="M73.8 33.8c0-.5-.3-1-1-1H47.3c-.4 0-.9.3-1.2.7L27.9 53.8c-.4.4-.4 1 0 1.4l17 17c.4.4.9.4 1.3 0l20.3-20.3c.3-.3.6-.8.6-1.2V33.8zm-19 19c-3.3 0-6-2.7-6-6s2.7-6 6-6 6 2.7 6 6-2.7 6-6 6z" fill="#0070d2"/>
    <path d="M59.6 20.2c0-.5-.3-1-1-1H33.1c-.4 0-.9.3-1.2.7L13.6 40.2c-.4.4-.4 1 0 1.4l17 17c.4.4.9.4 1.3 0L52.2 38.3c.3-.3.6-.8.6-1.2V20.2h6.8zm-19 19c-3.3 0-6-2.7-6-6s2.7-6 6-6 6 2.7 6 6-2.7 6-6 6z" fill="#fff"/>
  </symbol>
  <symbol id="case" viewBox="0 0 100 100">
    <path d="M38 30h24a2 2 0 002-2v-4a4 4 0 00-4-4H40a4 4 0 00-4 4v4a2 2 0 002 2z" fill="#fff"/>
    <path d="M72 30H28a6 6 0 00-6 6v32a6 6 0 006 6h44a6 6 0 006-6V36a6 6 0 00-6-6zM40.8 66.5a1.5 1.5 0 01-1.4 1.5h-5.9a1.5 1.5 0 01-1.5-1.5v-15a1.5 1.5 0 011.5-1.5h5.9a1.5 1.5 0 011.4 1.5zm27.6-11.2a1.9 1.9 0 01-1.9 1.9H48.4a1.9 1.9 0 01-1.8-1.9v-3.8a1.9 1.9 0 011.8-1.9h18.1a1.9 1.9 0 011.9 1.9z" fill="#fff"/>
  </symbol>
  <symbol id="account" viewBox="0 0 100 100">
    <path d="M74 36H57.9a9 9 0 00-18 0H26a4 4 0 00-4 4v36a4 4 0 004 4h48a4 4 0 004-4V40a4 4 0 00-4-4zM48.9 32a5 5 0 11-5 5 5 5 0 015-5zM62 68a2 2 0 01-2 2H38a2 2 0 01-2-2v-2a2 2 0 012-2h22a2 2 0 012 2zm8-12a2 2 0 01-2 2H38a2 2 0 01-2-2v-2a2 2 0 012-2h30a2 2 0 012 2z" fill="#fff"/>
  </symbol>
  <symbol id="contact" viewBox="0 0 100 100">
    <circle cx="50" cy="39.8" r="16" fill="#fff"/>
    <path d="M76.9 60.3a33.3 33.3 0 00-19.7-7.6h-.1a21.8 21.8 0 01-14.4 0h-.1a33.3 33.3 0 00-19.7 7.6 23.3 23.3 0 00-9.1 17.2v1.6a4 4 0 004 4h64.2a4 4 0 004-4v-1.6a23.5 23.5 0 00-9.1-17.2z" fill="#fff"/>
  </symbol>
  <symbol id="opportunity" viewBox="0 0 100 100">
    <path d="M75.5 37.8a4.5 4.5 0 01-3.3 1.4 4.6 4.6 0 01-3.1-1.3c-1.2-1.2-4.1-3.2-7.6-3.2a10.4 10.4 0 00-5 1.3l-.5.3.5.7a11.5 11.5 0 011.4 5.9 11.6 11.6 0 01-11.5 11.5c-3.1 0-5.2-1.3-6.6-2.1a6.7 6.7 0 00-3.5-1.1 5.7 5.7 0 00-4 1.5L29 55.4a1.4 1.4 0 000 2l14 14a1.4 1.4 0 002 0l3.7-3.7a3.9 3.9 0 001.3-3c-.1-1.2-.5-2.4-2.6-3.5a7.6 7.6 0 01-1.5-1 12.3 12.3 0 018.7-3.5 11.5 11.5 0 0111.5 11.4 9.8 9.8 0 011 4.3 6.6 6.6 0 001.4 4l.3.5.5-.3a12.1 12.1 0 014.9-2.2 13.4 13.4 0 018.2 1.6 4.7 4.7 0 003.3 1.2 4.6 4.6 0 003.3-1.5l12.4-12.8a4.4 4.4 0 001-3.2 4.6 4.6 0 00-1.5-3.2c-2.7-2.9-7.3-6.8-15.7-6.8a28.4 28.4 0 00-10.9 2.1l-1.1.5s-.5 0-.5-1.2a11.4 11.4 0 0111.5-11.2 9.1 9.1 0 014.6 1.4 4.6 4.6 0 003.2 1.3 4.2 4.2 0 003.3-1.5l11.8-12.3a4.6 4.6 0 00.9-3.1 4.9 4.9 0 00-1.6-3.3c-3.5-3.4-9.9-7.8-18.4-7.8a32.5 32.5 0 00-22.5 9.6 32.3 32.3 0 00-9.9 22.3 30.5 30.5 0 00.6 6.5c.3 1.5.6 2.1.6 2.1a.7.7 0 01-.3.1c-.7 0-3-1.8-4.9-3.7a13.1 13.1 0 01-2.4-14.6l.4-.7-.6-.5a20.6 20.6 0 00-9.5-4.3 25.5 25.5 0 00-4.7-.5 13.7 13.7 0 00-9.9 3.9 13.7 13.7 0 00-3.8 9.8 13.4 13.4 0 003.9 9.8l38.1 38.2a13.4 13.4 0 009.8 3.9 14.2 14.2 0 009.8-3.9 13.6 13.6 0 003.9-9.8 12.2 12.2 0 00-.5-4.8 13.8 13.8 0 00-4.2-9.3c-2-1.8-3.7-4.1-3.7-4.8a1.5 1.5 0 01.2-.5s.5.3 2 .6a30.7 30.7 0 006.6.6 32.1 32.1 0 0022.2-9.8 31.7 31.7 0 009.7-22.5c0-8.5-4.4-14.8-7.8-18.3z" fill="#fff"/>
  </symbol>
  <symbol id="lead" viewBox="0 0 100 100">
    <path d="M48.7 50h-1.4a14.7 14.7 0 01-14.6-14.6V33a14.7 14.7 0 0114.6-14.7h1.4a14.7 14.7 0 110 29.4V50z" fill="#fff"/>
    <path d="M48.8 50.2h-1.4a15 15 0 01-14.9-14.9v-2.3a15 15 0 0114.9-14.9h1.4a14.9 14.9 0 0114.9 14.9v2.3a14.9 14.9 0 01-14.9 14.9zm-1.4-30a12.9 12.9 0 00-12.8 12.8v2.3a12.9 12.9 0 0012.8 12.8h1.4a12.9 12.9 0 0012.9-12.8v-2.3a12.9 12.9 0 00-12.9-12.8z" fill="#fff"/>
    <path d="M35.3 47.3a17.4 17.4 0 00-12.6-5.3 18 18 0 00-14.8 8.1c-2.9 4-2.9 9.2-2.9 13.8v.8h24.8l1.6-1.6a14.6 14.6 0 013.9-15.8zM67.2 50.3a20.1 20.1 0 00-29.4-.1L36.5 52a11.8 11.8 0 00-3.1 8.1v3c0 3.5 1.9 6.2 5.6 6.2h36c3.8 0 5.6-2.7 5.6-6.2V60a11.3 11.3 0 00-3.1-8.1z" fill="#fff"/>
  </symbol>
  <symbol id="task" viewBox="0 0 100 100">
    <path d="M39 60a3 3 0 103 3 2.9 2.9 0 00-3-3zm.9-40a24.6 24.6 0 00-24.5 24.9 24.5 24.5 0 1024.5-24.9zm13.9 33.5l-2.4 2.4a1.5 1.5 0 01-2.2 0l-10.5-10.5a1.5 1.5 0 010-2.1l2.4-2.4a1.5 1.5 0 012.1 0l6.9 6.9 15.7-15.7a1.5 1.5 0 012.1 0l2.4 2.4a1.5 1.5 0 010 2.1zM39 72a3 3 0 103 3 2.9 2.9 0 00-3-3zm0-24a3 3 0 103 3 2.9 2.9 0 00-3-3z" fill="#fff"/>
  </symbol>
  <symbol id="event" viewBox="0 0 100 100">
    <path d="M76 42H24a2 2 0 00-2 2v30a6 6 0 006 6h44a6 6 0 006-6V44a2 2 0 00-2-2zM40 70a2 2 0 01-2 2h-4a2 2 0 01-2-2v-4a2 2 0 012-2h4a2 2 0 012 2zm0-14a2 2 0 01-2 2h-4a2 2 0 01-2-2v-4a2 2 0 012-2h4a2 2 0 012 2zm14 14a2 2 0 01-2 2h-4a2 2 0 01-2-2v-4a2 2 0 012-2h4a2 2 0 012 2zm0-14a2 2 0 01-2 2h-4a2 2 0 01-2-2v-4a2 2 0 012-2h4a2 2 0 012 2zm14 14a2 2 0 01-2 2h-4a2 2 0 01-2-2v-4a2 2 0 012-2h4a2 2 0 012 2zm0-14a2 2 0 01-2 2h-4a2 2 0 01-2-2v-4a2 2 0 012-2h4a2 2 0 012 2zM72 26h-5v-2a4 4 0 00-8 0v2H41v-2a4 4 0 00-8 0v2h-5a6 6 0 00-6 6v2a2 2 0 002 2h52a2 2 0 002-2v-2a6 6 0 00-6-6z" fill="#fff"/>
  </symbol>
  <symbol id="custom" viewBox="0 0 100 100">
    <path d="M26.2 26.2h47.6v47.6H26.2z" fill="#fff"/>
  </symbol>
</svg>